<?xml version="1.0" standalone="no"?>
<!DOCTYPE svg PUBLIC "-//W3C//DTD SVG 20010904//EN"
 "http://www.w3.org/TR/2001/REC-SVG-20010904/DTD/svg10.dtd">
<svg version="1.0" xmlns="http://www.w3.org/2000/svg"
 width="180.000000pt" height="180.000000pt" viewBox="0 0 180.000000 180.000000"
 preserveAspectRatio="xMidYMid meet">
<metadata>
Created by potrace 1.14, written by Peter Selinger 2001-2017
</metadata>
<g transform="translate(0.000000,180.000000) scale(0.100000,-0.100000)"
fill="#000000" stroke="none">
<path d="M73 1442 l-73 -3 0 -539 0 -539 68 -1 c37 0 74 -1 82 -1 8 0 44 0 80
0 36 0 74 -1 85 -1 11 0 31 0 45 1 14 1 32 1 40 1 8 -1 50 0 93 1 42 1 79 0
82 -2 2 -3 33 -2 69 1 36 3 66 3 66 0 0 -6 128 -3 146 4 8 3 16 1 19 -5 4 -5
11 -7 16 -3 8 4 77 5 222 3 6 0 41 0 77 0 36 0 72 0 80 0 8 0 44 0 80 0 36 0
72 0 80 0 8 0 44 0 80 0 36 0 74 -1 85 -1 11 0 31 0 45 1 14 1 34 1 45 1 11 0
41 0 68 0 l47 1 0 540 0 540 -137 -1 c-124 0 -312 -1 -345 -1 -71 -1 -240 0
-268 2 -19 0 -42 1 -50 1 -8 -1 -112 -1 -230 -1 -118 1 -221 1 -227 0 -26 -2
-42 -2 -186 -1 -82 1 -151 -1 -154 -3 -2 -3 -17 -2 -31 1 -15 4 -60 6 -99 4z"/>
</g>
</svg>
